<svg width="61" height="28" viewBox="0 0 61 28" fill="none" xmlns="http://www.w3.org/2000/svg">
<g clip-path="url(#clip0_476_4126)">
<path d="M54.1358 15.5258L53.0924 21.7766C52.873 23.1765 53.4644 23.9949 54.5849 23.9949L57.1574 23.9924C58.6172 23.9924 58.9368 22.8471 59.1439 21.6369L60.6308 13.6444C60.9679 12.0548 60.6857 10.0561 59.1888 8.7161C58.2905 7.91011 57.5468 7.61816 55.9323 7.61816C53.7939 7.61816 51.3658 9.16277 50.3753 11.1815L50.5673 10.1783C51.0188 8.15216 50.1631 7.61816 48.7258 7.61816L46.8716 7.62067C45.0878 7.62067 44.6959 8.5988 44.4836 9.70675L42.3055 21.7791C42.1231 22.5951 42.2355 23.9974 43.8449 23.9974H46.43C47.9472 23.9974 48.2667 22.7872 48.4639 21.6443L49.5116 15.8577C49.7513 14.5377 49.956 13.8864 50.4051 13.4073C51.1015 12.6088 52.4739 12.2644 53.4446 13.0555C54.0682 13.5645 54.2852 14.378 54.1358 15.5258Z" fill="white"/>
<path d="M40.3889 21.642C40.177 22.8947 39.815 23.9976 38.3352 23.9976H35.7079C34.4499 23.9976 34.0084 23.0494 34.223 21.8316L36.384 9.70937C36.601 8.4193 37.1575 7.62329 38.772 7.62329H40.7534C42.4303 7.62329 42.8643 8.42928 42.4824 10.1835L40.3889 21.642Z" fill="white"/>
<path d="M40.2192 5.92889C41.8536 5.92889 43.1787 4.60138 43.1787 2.96444C43.1787 1.32751 41.8536 0 40.2192 0C38.5848 0 37.2596 1.32751 37.2596 2.96444C37.2596 4.60138 38.5848 5.92889 40.2192 5.92889Z" fill="white"/>
<path d="M11.6628 7.62558C12.3216 8.41161 13.0952 9.40477 12.7134 11.7479L11.6803 17.2625L11.87 21.7067C11.9049 23.2912 12.6684 23.9949 14.0059 23.9949L17.3622 23.9999C18.4277 23.9999 18.8543 23.1889 19.286 22.1608L21.8462 15.8502L22.1058 21.8714C22.1282 23.2064 22.8069 23.9999 24.0371 23.9999L27.865 23.9974C28.9529 23.9974 29.4071 23.3461 29.8837 22.1683L34.7671 10.0885C35.2961 8.8383 34.9917 7.62061 33.6691 7.62061H31.2187C30.3054 7.62061 29.694 7.93751 29.3347 8.80586L26.0359 16.9007L25.7339 9.67922C25.6841 8.14463 24.9504 7.62061 24.092 7.62061H21.5967C20.6111 7.62061 20.0371 8.01486 19.7302 8.76345L16.4189 16.9032L16.122 9.50457C16.0796 8.11717 15.6179 7.62311 14.505 7.62311L11.6628 7.62558Z" fill="white"/>
<path d="M10.9517 11.3287C11.2486 9.8615 10.6996 8.79099 9.73395 8.08982C8.81818 7.47597 7.68528 7.40109 6.49752 7.99749L1.46696 10.2657C0.216802 10.8297 -0.342149 12.3044 0.216803 13.5621C0.775755 14.8197 2.2455 15.3811 3.49567 14.8197L4.16938 14.5153L3.08642 20.4117C2.77451 22.1784 3.92983 23.6481 5.49689 23.9451C7.16129 24.2595 8.76079 23.1665 9.04025 21.5096L10.9517 11.3287Z" fill="white"/>
</g>
<defs>
<clipPath id="clip0_476_4126">
<rect width="61" height="24" fill="white"/>
</clipPath>
</defs>
</svg>
