<svg width="12" height="12" viewBox="0 0 12 12" fill="none" xmlns="http://www.w3.org/2000/svg">
<g clip-path="url(#clip0_footer_bets)">
<g clip-path="url(#clip1_footer_bets)">
<g clip-path="url(#clip2_footer_bets)">
<path d="M0.792741 7.42011C0.352752 8.0087 0.0914995 8.67775 0.0131538 9.41659C-0.00259023 9.56506 -0.00473441 9.8998 0.00962083 9.96915C0.0934137 10.3742 0.460268 10.718 1.09341 10.985C1.42288 11.1239 1.84575 11.2445 2.30701 11.3312C2.72617 11.4099 3.13527 11.4574 3.68383 11.491C3.8791 11.503 4.72621 11.503 4.92147 11.491C5.4906 11.4561 5.9162 11.4055 6.35163 11.3209C7.57531 11.0831 8.36074 10.6482 8.55774 10.0994C8.59539 9.99451 8.60267 9.95137 8.60695 9.80785C8.61492 9.54115 8.57629 9.19612 8.50476 8.89492C8.27199 7.9149 7.6732 7.0572 6.81971 6.46797C5.33628 7.83607 3.27036 7.83607 1.72092 6.51416C1.36061 6.77179 1.0525 7.07263 0.792741 7.42011Z" fill="#525261"/>
<path d="M6.93387 3.69939C6.93387 5.18114 5.73269 6.38233 4.25094 6.38233C2.7692 6.38233 1.56801 5.18114 1.56801 3.69939C1.56801 2.21765 2.7692 1.01646 4.25094 1.01646C5.73269 1.01646 6.93387 2.21765 6.93387 3.69939Z" fill="#525261"/>
<path d="M8.36995 6.47844C9.33002 7.69852 9.53374 8.4433 9.6158 9.83252C11.0093 9.54533 11.6568 9.3263 11.9682 8.56801C12.0791 8.29692 11.9684 6.70764 10.5056 5.5C9.81431 6.14982 9.33542 6.34276 8.36995 6.47844Z" fill="#525261"/>
<path d="M7.62525 5.32111C7.86152 4.83045 7.99391 4.28035 7.99391 3.69932C7.99391 2.5966 7.51703 1.60526 6.75825 0.920284C7.14831 0.655026 7.61936 0.5 8.12663 0.5C9.4722 0.5 10.563 1.5908 10.563 2.93638C10.563 4.28195 9.4722 5.37276 8.12663 5.37276C7.95477 5.37276 7.78706 5.35496 7.62525 5.32111Z" fill="#525261"/>
</g>
</g>
</g>
<defs>
<clipPath id="clip0_footer_bets">
<rect width="12" height="12" fill="white"/>
</clipPath>
<clipPath id="clip1_footer_bets">
<rect width="12" height="12" fill="white"/>
</clipPath>
<clipPath id="clip2_footer_bets">
<rect width="12" height="12" fill="white"/>
</clipPath>
</defs>
</svg>
