<svg width="12" height="12" viewBox="0 0 12 12" fill="none" xmlns="http://www.w3.org/2000/svg">
<path fill-rule="evenodd" clip-rule="evenodd" d="M6 12C9.31371 12 12 9.31371 12 6C12 2.68629 9.31371 0 6 0C2.68629 0 0 2.68629 0 6C0 9.31371 2.68629 12 6 12ZM8.77443 6.78769C8.77443 6.06615 8.16597 5.63538 6.94905 5.49538L5.45482 5.32577C5.17482 5.29346 4.98366 5.25577 4.88136 5.21269C4.78443 5.16423 4.73597 5.09423 4.73597 5.00269V4.94615C4.73597 4.71461 5.12636 4.59884 5.90712 4.59884C6.3702 4.59884 6.71212 4.64461 6.93289 4.73615C7.15905 4.8223 7.27212 4.95692 7.27212 5.14V5.19654H8.65328V5.14C8.65328 4.69846 8.48905 4.34307 8.16059 4.07384C7.83751 3.79923 7.36366 3.62423 6.73905 3.54884V2.8623H5.22866V3.54077C4.61482 3.61077 4.14097 3.7723 3.80712 4.02538C3.47866 4.27846 3.31443 4.60692 3.31443 5.01077V5.09154C3.31443 5.47384 3.46251 5.77538 3.75866 5.99615C4.05482 6.21692 4.50443 6.35961 5.10751 6.42423L6.6502 6.58577C6.90866 6.61269 7.08636 6.65307 7.18328 6.70692C7.2802 6.76077 7.32866 6.84154 7.32866 6.94923V7.00577C7.32866 7.14577 7.22636 7.24807 7.02174 7.31269C6.82251 7.37731 6.50482 7.40961 6.06866 7.40961C5.57328 7.40961 5.20712 7.35846 4.9702 7.25615C4.73328 7.14846 4.61482 6.98692 4.61482 6.77154V6.715H3.22559V6.77154C3.22559 7.26154 3.39251 7.64923 3.72636 7.93461C4.06559 8.21461 4.56636 8.39231 5.22866 8.46769V9.13807H6.73905V8.46769C7.3852 8.39231 7.88597 8.2173 8.24136 7.94269C8.59674 7.66269 8.77443 7.30461 8.77443 6.86846V6.78769Z" fill="#525261"/>
</svg>
