<svg width="32" height="32" viewBox="0 0 32 32" fill="none" xmlns="http://www.w3.org/2000/svg">
<path d="M8.70778e-09 10C1.08938e-08 4.47715 4.47715 1.29874e-09 10 2.90081e-09L22 6.38179e-09C27.5228 7.98387e-09 32 4.47715 32 10L32 22C32 27.5228 27.5228 32 22 32L10 32C4.47715 32 1.77212e-09 27.5228 3.9581e-09 22L8.70778e-09 10Z" fill="#B3B6BD" fill-opacity="0.12"/>
<g clip-path="url(#clip0_476_4127)">
<path d="M14.4716 16.4887C14.687 16.4887 14.9052 16.571 15.0751 16.7455C15.1566 16.8293 15.2182 16.9268 15.2596 17.0307C15.3016 17.1339 15.325 17.2474 15.3251 17.3656L15.3251 21.5727C15.3251 22.0542 14.9402 22.4504 14.4716 22.4506C14.0027 22.4506 13.6171 22.0543 13.6171 21.5727L13.6171 19.4838L9.9569 23.2445C9.62534 23.5852 9.08046 23.5852 8.7489 23.2445C8.41753 22.904 8.41759 22.3449 8.7489 22.0043L12.41 18.2436L10.3768 18.2436C9.908 18.2436 9.52233 17.8473 9.52233 17.3656C9.52243 16.8841 9.90806 16.4887 10.3768 16.4887L14.4716 16.4887Z" fill="#F0F2F5"/>
<path d="M22.0448 8.75527C22.3764 8.41498 22.9203 8.41484 23.2518 8.75527C23.5833 9.09584 23.5832 9.65486 23.2518 9.99551L19.5907 13.7572L21.6249 13.7572C22.0936 13.7574 22.4784 14.1526 22.4784 14.6342C22.4784 15.1157 22.0936 15.512 21.6249 15.5121L17.5292 15.5121C17.3137 15.512 17.0955 15.4288 16.9257 15.2543C16.8441 15.1705 16.7825 15.073 16.7411 14.9691C16.6991 14.8658 16.6757 14.7524 16.6757 14.6342L16.6757 10.4271C16.6758 9.9456 17.0614 9.55019 17.5301 9.55019C17.9987 9.55044 18.3836 9.94575 18.3837 10.4271L18.3837 12.516L22.0448 8.75527Z" fill="#F0F2F5"/>
</g>
<defs>
<clipPath id="clip0_476_4127">
<rect width="16" height="16" fill="white" transform="translate(8 8)"/>
</clipPath>
</defs>
</svg>
