<svg width="144" height="16" viewBox="0 0 144 16" fill="none" xmlns="http://www.w3.org/2000/svg">
<path d="M12.991 5.78422H10.5064C10.4356 5.37611 10.3049 5.01458 10.1145 4.69962C9.92402 4.38023 9.68708 4.10963 9.40364 3.88783C9.1202 3.66603 8.7969 3.49968 8.43373 3.38878C8.075 3.27345 7.68748 3.21578 7.27118 3.21578C6.53157 3.21578 5.8761 3.40209 5.30479 3.77471C4.73348 4.1429 4.28617 4.68409 3.96286 5.39829C3.63956 6.10805 3.47791 6.97529 3.47791 8C3.47791 9.04246 3.63956 9.92079 3.96286 10.635C4.2906 11.3447 4.7379 11.8815 5.30479 12.2452C5.8761 12.6046 6.52935 12.7842 7.26453 12.7842C7.67198 12.7842 8.05286 12.731 8.40716 12.6245C8.76589 12.5136 9.08698 12.3517 9.37043 12.1388C9.6583 11.9259 9.89967 11.6641 10.0945 11.3536C10.2938 11.0431 10.4311 10.6882 10.5064 10.289L12.991 10.3023C12.898 10.9499 12.6965 11.5577 12.3864 12.1255C12.0808 12.6933 11.68 13.1946 11.184 13.6293C10.688 14.0596 10.1078 14.3967 9.4435 14.6407C8.77918 14.8802 8.04179 15 7.23132 15C6.03554 15 4.9682 14.7228 4.0293 14.1683C3.09039 13.6138 2.35078 12.8131 1.81047 11.7662C1.27016 10.7193 1 9.46388 1 8C1 6.53169 1.27237 5.2763 1.81711 4.23384C2.36185 3.18695 3.10368 2.38625 4.04258 1.83175C4.98149 1.27725 6.0444 1 7.23132 1C7.98864 1 8.69282 1.10646 9.34385 1.31939C9.99488 1.53232 10.5751 1.84506 11.0844 2.2576C11.5937 2.66572 12.0122 3.16698 12.3399 3.76141C12.6721 4.35139 12.8891 5.02567 12.991 5.78422Z" fill="#7B93FF"/>
<path d="M15.248 14.8137V1.18631H20.35C21.3952 1.18631 22.2721 1.36819 22.9807 1.73194C23.6937 2.09569 24.2318 2.60583 24.595 3.26236C24.9626 3.91445 25.1464 4.67522 25.1464 5.54468C25.1464 6.41857 24.9603 7.17712 24.5883 7.82034C24.2207 8.45913 23.6782 8.95374 22.9607 9.30418C22.2433 9.65019 21.3619 9.82319 20.3167 9.82319H16.6829V7.77376H19.9846C20.5958 7.77376 21.0962 7.68948 21.4859 7.52091C21.8757 7.34791 22.1636 7.09727 22.3496 6.76901C22.54 6.43631 22.6352 6.0282 22.6352 5.54468C22.6352 5.06115 22.54 4.64861 22.3496 4.30703C22.1591 3.96103 21.869 3.6993 21.4793 3.52186C21.0896 3.33999 20.5869 3.24905 19.9713 3.24905H17.7126V14.8137H15.248ZM22.2765 8.63878L25.6446 14.8137H22.8943L19.586 8.63878H22.2765Z" fill="#7B93FF"/>
<path d="M25.9552 1.18631H28.7387L32.0669 7.21483H32.1998L35.528 1.18631H38.3115L33.3623 9.73004V14.8137H30.9043V9.73004L25.9552 1.18631Z" fill="#7B93FF"/>
<path d="M40.057 14.8137V1.18631H45.159C46.2042 1.18631 47.0811 1.3815 47.7897 1.77186C48.5027 2.16223 49.0408 2.69899 49.404 3.38213C49.7716 4.06084 49.9554 4.8327 49.9554 5.69772C49.9554 6.57161 49.7716 7.34791 49.404 8.02662C49.0364 8.70532 48.4939 9.23986 47.7764 9.63023C47.0589 10.0162 46.1754 10.2091 45.1258 10.2091H41.7444V8.17966H44.7936C45.4048 8.17966 45.9052 8.07319 46.295 7.86027C46.6847 7.64734 46.9726 7.35456 47.1586 6.98194C47.349 6.60932 47.4442 6.18124 47.4442 5.69772C47.4442 5.2142 47.349 4.78834 47.1586 4.42015C46.9726 4.05196 46.6825 3.76584 46.2883 3.56179C45.8986 3.3533 45.3959 3.24905 44.7803 3.24905H42.5216V14.8137H40.057Z" fill="#7B93FF"/>
<path d="M51.4982 3.2557V1.18631H62.3532V3.2557H58.1481V14.8137H55.7034V3.2557H51.4982Z" fill="#7B93FF"/>
<path d="M76 8C76 9.46831 75.7254 10.7259 75.1762 11.7728C74.6315 12.8153 73.8875 13.6138 72.9441 14.1683C72.0052 14.7228 70.9401 15 69.7488 15C68.5574 15 67.4901 14.7228 66.5467 14.1683C65.6078 13.6093 64.8638 12.8086 64.3146 11.7662C63.7699 10.7193 63.4975 9.46388 63.4975 8C63.4975 6.53169 63.7699 5.2763 64.3146 4.23384C64.8638 3.18695 65.6078 2.38625 66.5467 1.83175C67.4901 1.27725 68.5574 1 69.7488 1C70.9401 1 72.0052 1.27725 72.9441 1.83175C73.8875 2.38625 74.6315 3.18695 75.1762 4.23384C75.7254 5.2763 76 6.53169 76 8ZM73.5221 8C73.5221 6.96641 73.3604 6.09474 73.0371 5.38498C72.7183 4.67079 72.2754 4.13181 71.7085 3.76806C71.1416 3.39987 70.4884 3.21578 69.7488 3.21578C69.0091 3.21578 68.3559 3.39987 67.789 3.76806C67.2221 4.13181 66.777 4.67079 66.4537 5.38498C66.1349 6.09474 65.9754 6.96641 65.9754 8C65.9754 9.03359 66.1349 9.90748 66.4537 10.6217C66.777 11.3314 67.2221 11.8704 67.789 12.2386C68.3559 12.6023 69.0091 12.7842 69.7488 12.7842C70.4884 12.7842 71.1416 12.6023 71.7085 12.2386C72.2754 11.8704 72.7183 11.3314 73.0371 10.6217C73.3604 9.90748 73.5221 9.03359 73.5221 8Z" fill="#7B93FF"/>
<path d="M80 1.18631H82.9919L86.9987 11.0608H87.1569L91.1637 1.18631H94.1556V14.8137H91.8095V5.45152H91.6843L87.9543 14.7738H86.2013L82.4713 5.43156H82.3461V14.8137H80V1.18631Z" fill="#B3C0D8" fill-opacity="0.69"/>
<path d="M96.818 14.8137V1.18631H105.596V3.2557H99.263V6.95532H105.141V9.02471H99.263V12.7443H105.649V14.8137H96.818Z" fill="#B3C0D8" fill-opacity="0.69"/>
<path d="M108.09 14.8137V1.18631H113.152C114.189 1.18631 115.058 1.36819 115.761 1.73194C116.469 2.09569 117.002 2.60583 117.363 3.26236C117.727 3.91445 117.91 4.67522 117.91 5.54468C117.91 6.41857 117.725 7.17712 117.356 7.82034C116.992 8.45913 116.453 8.95374 115.742 9.30418C115.03 9.65019 114.156 9.82319 113.119 9.82319H109.514V7.77376H112.789C113.395 7.77376 113.892 7.68948 114.279 7.52091C114.665 7.34791 114.951 7.09727 115.135 6.76901C115.324 6.43631 115.419 6.0282 115.419 5.54468C115.419 5.06115 115.324 4.64861 115.135 4.30703C114.946 3.96103 114.659 3.6993 114.272 3.52186C113.885 3.33999 113.387 3.24905 112.776 3.24905H110.535V14.8137H108.09ZM115.063 8.63878L118.404 14.8137H115.676L112.394 8.63878H115.063Z" fill="#B3C0D8" fill-opacity="0.69"/>
<path d="M129.202 5.53802C129.092 5.17871 128.941 4.8571 128.747 4.57319C128.558 4.28485 128.33 4.03866 128.062 3.8346C127.798 3.63055 127.495 3.4775 127.152 3.37547C126.81 3.26901 126.436 3.21578 126.032 3.21578C125.307 3.21578 124.661 3.39987 124.095 3.76806C123.528 4.13625 123.082 4.67744 122.757 5.39163C122.436 6.10139 122.276 6.96641 122.276 7.98669C122.276 9.01584 122.436 9.88752 122.757 10.6017C123.077 11.3159 123.523 11.8593 124.095 12.2319C124.666 12.6001 125.329 12.7842 126.085 12.7842C126.77 12.7842 127.363 12.6511 127.864 12.385C128.369 12.1188 128.758 11.7418 129.031 11.2538C129.303 10.7614 129.439 10.1847 129.439 9.52376L129.993 9.61027H126.329V7.68061H131.805V9.31749C131.805 10.4842 131.559 11.4933 131.067 12.3451C130.575 13.1968 129.898 13.8533 129.037 14.3146C128.176 14.7715 127.188 15 126.072 15C124.828 15 123.737 14.7183 122.796 14.1549C121.861 13.5871 121.129 12.782 120.602 11.7395C120.079 10.6926 119.818 9.45057 119.818 8.01331C119.818 6.91318 119.971 5.93061 120.279 5.06559C120.591 4.20057 121.026 3.46641 121.584 2.86312C122.142 2.25539 122.796 1.79404 123.548 1.47909C124.299 1.1597 125.116 1 125.999 1C126.746 1 127.442 1.1109 128.088 1.3327C128.734 1.55006 129.307 1.86058 129.808 2.26426C130.313 2.66793 130.729 3.14702 131.054 3.70152C131.379 4.25602 131.592 4.86819 131.693 5.53802H129.202Z" fill="#B3C0D8" fill-opacity="0.69"/>
<path d="M134.169 14.8137V1.18631H142.947V3.2557H136.614V6.95532H142.493V9.02471H136.614V12.7443H143V14.8137H134.169Z" fill="#B3C0D8" fill-opacity="0.69"/>
</svg>
