<svg width="32" height="32" viewBox="0 0 32 32" fill="none" xmlns="http://www.w3.org/2000/svg">
<rect width="32" height="32" rx="16" fill="#15151A"/>
<rect width="32" height="32" rx="8" fill="#1A1A24"/>
<path fill-rule="evenodd" clip-rule="evenodd" d="M16.5738 8C17.1787 8.00002 17.7264 8.33607 18.0289 8.83203C18.176 9.07196 18.274 9.3678 18.2496 9.67969C18.2332 9.91967 18.3072 10.1598 18.438 10.3838C18.855 11.0637 19.7782 11.3194 20.4976 10.9355C21.307 10.4716 22.3294 10.752 22.7955 11.5439L23.3433 12.4883C23.8173 13.2802 23.5553 14.296 22.7378 14.752C22.0431 15.16 21.7985 16.064 22.2154 16.752C22.3462 16.9679 22.4934 17.1517 22.7222 17.2637C23.0083 17.4157 23.229 17.6565 23.3843 17.8965C23.6865 18.3924 23.662 19.0003 23.3677 19.5361L22.7955 20.4961C22.493 21.0081 21.9286 21.3281 21.3482 21.3281C21.0621 21.3281 20.7435 21.2478 20.482 21.0879C20.2694 20.9519 20.0239 20.9043 19.7623 20.9043C18.9529 20.9043 18.2741 21.5684 18.2496 22.3604C18.2494 23.2802 17.4973 24 16.5572 24H15.4459C14.4976 24 13.7449 23.2802 13.7447 22.3604C13.7283 21.5684 13.0501 20.9044 12.2408 20.9043C11.971 20.9043 11.7254 20.9519 11.521 21.0879C11.2595 21.2478 10.9327 21.3281 10.6548 21.3281C10.0663 21.3281 9.5023 21.0079 9.19976 20.4961L8.6353 19.5361C8.33289 19.0163 8.31646 18.3924 8.6187 17.8965C8.74951 17.6565 8.99503 17.4157 9.273 17.2637C9.50175 17.1517 9.64873 16.9678 9.78765 16.752C10.1964 16.064 9.95133 15.16 9.2564 14.752C8.44711 14.2959 8.18595 13.2802 8.6519 12.4883L9.19976 11.5439C9.67391 10.7523 10.687 10.472 11.5044 10.9355C12.2157 11.3195 13.1402 11.0638 13.5572 10.3838C13.6879 10.1599 13.761 9.91959 13.7447 9.67969C13.7284 9.36781 13.8189 9.07195 13.9742 8.83203C14.2767 8.33609 14.8247 8.016 15.4214 8H16.5738ZM16.0093 13.7441C14.7259 13.7443 13.6881 14.752 13.688 16.0078C13.688 17.2637 14.7259 18.2635 16.0093 18.2637C17.2929 18.2637 18.3072 17.2638 18.3072 16.0078C18.3071 14.7519 17.2928 13.7441 16.0093 13.7441Z" fill="#F0F2F5"/>
</svg>
