<svg width="32" height="32" viewBox="0 0 32 32" fill="none" xmlns="http://www.w3.org/2000/svg">
<rect width="32" height="32" rx="16" fill="#15151A"/>
<rect width="32" height="32" rx="8" fill="#1A1A24"/>
<g clip-path="url(#clip0_subheader_sound)">
<path d="M21.9533 8.90767C22.1873 8.67302 22.5673 8.67174 22.8019 8.90572C23.0364 9.13971 23.0368 9.51977 22.8029 9.75435L9.37808 23.2163C9.14408 23.4504 8.76492 23.451 8.53042 23.2172C8.29612 22.9834 8.29592 22.6042 8.52944 22.3696L10.715 20.1782H10.1378C9.05215 20.1778 8.25685 19.3909 8.11245 18.1743C7.94624 16.9572 7.97886 14.8687 8.11245 13.7622C8.26969 12.6102 9.10245 11.8114 10.1378 11.811H11.546L14.2345 9.55904C14.5589 9.27723 15.1311 8.99892 15.5832 9.00044C16.3938 9.00063 17.15 9.58496 17.423 10.521C17.5231 10.912 17.5636 11.3044 17.6027 11.6821L17.6398 12.0258C17.6675 12.2532 17.6885 12.6569 17.7052 13.1665L21.9533 8.90767Z" fill="#666980"/>
<path d="M17.0001 17.4516C17.4286 17.0317 17.7432 17.2291 17.7316 17.7075C17.7107 18.5666 17.6958 19.5019 17.6398 19.9643L17.6027 20.3208V20.3276C17.5679 20.6849 17.5316 21.0552 17.4289 21.4497C17.1558 22.383 16.4278 22.9887 15.6017 22.9887C15.5757 22.9887 15.5489 22.9896 15.5197 22.9887C15.0637 22.9884 14.5898 22.7346 14.2501 22.4379L13.6398 21.9262C13.1637 21.5398 13.211 21.2352 13.5031 20.8979L17.0001 17.4516Z" fill="#666980"/>
</g>
<defs>
<clipPath id="clip0_subheader_sound">
<rect width="16" height="16" fill="white" transform="translate(8 8)"/>
</clipPath>
</defs>
</svg>
