<svg width="34" height="32" viewBox="0 0 34 32" fill="none" xmlns="http://www.w3.org/2000/svg">
<rect x="2" width="32" height="32" rx="16" fill="#15151A"/>
<rect x="2" width="32" height="32" rx="8" fill="#1A1A24"/>
<path fill-rule="evenodd" clip-rule="evenodd" d="M18 24C22.4183 24 26 20.4183 26 16C26 11.5817 22.4183 8 18 8C13.5817 8 10 11.5817 10 16C10 20.4183 13.5817 24 18 24ZM18.4526 12.4521C18.7025 12.7021 18.7025 13.1073 18.4526 13.3572C18.2026 13.6072 17.7973 13.6071 17.5474 13.3572C17.2975 13.1072 17.2975 12.702 17.5474 12.4521C17.7973 12.2021 18.2026 12.2022 18.4526 12.4521ZM18.64 19.0954C18.64 19.4489 18.3534 19.7354 18 19.7354C17.6465 19.7354 17.36 19.4489 17.36 19.0954V15.4205C17.36 15.0671 17.6465 14.7805 18 14.7805C18.3534 14.7805 18.64 15.0671 18.64 15.4205V19.0954Z" fill="#F0F2F5"/>
</svg>
