<svg width="32" height="32" viewBox="0 0 32 32" fill="none" xmlns="http://www.w3.org/2000/svg">
<rect width="32" height="32" rx="16" fill="#1A1A23"/>
<rect width="32" height="32" rx="8" fill="#1A1A24"/>
<g clip-path="url(#clip0_476_4131)">
<path d="M19.0796 9.50781C21.0943 9.50781 22.7546 11.0281 22.9752 12.9839C22.9864 13.0828 22.9923 13.1821 22.9957 13.2813C23.0006 13.4259 22.8825 13.5435 22.7377 13.5436H19.3488C18.2663 13.5436 17.3886 14.4213 17.3886 15.5038V16.3198C17.3886 17.4022 18.2663 18.28 19.3488 18.28H22.7377C22.8826 18.2801 23.0015 18.3974 23.0009 18.5424C23.0005 18.6133 22.999 18.6843 22.9957 18.7551C22.9 20.835 21.1831 22.4918 19.0796 22.4918H12.9204C10.7555 22.4918 9.00015 20.7371 9 18.5723V13.4282C9 11.2633 10.7555 9.50781 12.9204 9.50781H19.0796Z" fill="white"/>
<path fill-rule="evenodd" clip-rule="evenodd" d="M22.7377 14.6638C22.8826 14.6639 23 14.7812 23 14.9261V16.8975C22.9999 17.0423 22.8825 17.1597 22.7377 17.1598H19.3488C18.8849 17.1598 18.5089 16.7837 18.5088 16.3198V15.5038C18.5088 15.0399 18.8848 14.6638 19.3488 14.6638H22.7377ZM19.8717 15.3278C19.5516 15.3279 19.2924 15.5879 19.2924 15.908C19.2925 16.2279 19.5517 16.4872 19.8717 16.4873C20.1917 16.4873 20.4517 16.228 20.4519 15.908C20.4519 15.5878 20.1919 15.3278 19.8717 15.3278Z" fill="white"/>
</g>
<defs>
<clipPath id="clip0_476_4131">
<rect width="14" height="14" fill="white" transform="translate(9 9)"/>
</clipPath>
</defs>
</svg>
